<?xml version="1.0" encoding="UTF-8"?>
<svg version="1.1" xmlns="http://www.w3.org/2000/svg" width="234" height="226">
<path d="M0 0 C1.29035156 0.02255859 2.58070312 0.04511719 3.91015625 0.06835938 C7.06561256 0.12679375 10.22046445 0.21645528 13.375 0.3125 C13.375 4.9325 13.375 9.5525 13.375 14.3125 C11.78429687 14.34988281 10.19359375 14.38726562 8.5546875 14.42578125 C6.45310201 14.4914558 4.35154055 14.55790262 2.25 14.625 C1.20328125 14.64755859 0.1565625 14.67011719 -0.921875 14.69335938 C-8.74208162 14.89506284 -8.74208162 14.89506284 -15.625 18.3125 C-18.96332343 23.48091154 -19.05437758 27.86024553 -19.01318359 33.80273438 C-19.02106903 35.2087365 -19.02106903 35.2087365 -19.02911377 36.6431427 C-19.04228073 39.73101635 -19.03358724 42.81837141 -19.0234375 45.90625 C-19.02545918 48.05806578 -19.0283714 50.2098809 -19.03213501 52.36169434 C-19.03655389 56.86733536 -19.0301412 61.37279774 -19.01611328 65.87841797 C-18.99902181 71.64872204 -19.0088653 77.41860746 -19.02683067 83.18889618 C-19.03768018 87.63103378 -19.03421677 92.07307241 -19.0264473 96.51521301 C-19.02444853 98.64264475 -19.0268932 100.77008553 -19.03388596 102.89750671 C-19.04151947 105.87266788 -19.02986924 108.84715458 -19.01318359 111.82226562 C-19.01925629 112.69828934 -19.02532898 113.57431305 -19.03158569 114.47688293 C-18.9796706 119.48307361 -18.45641878 123.00238042 -15.625 127.3125 C-12.0852188 129.67235414 -9.42452962 129.707015 -5.32421875 129.83203125 C-4.61022415 129.85851242 -3.89622955 129.88499359 -3.16059875 129.91227722 C-1.65027955 129.96491569 -0.13977721 130.01250713 1.37084961 130.05541992 C3.66954138 130.12446062 5.96604948 130.22049905 8.26367188 130.31835938 C9.734322 130.36623989 11.20502543 130.41251549 12.67578125 130.45703125 C13.35723709 130.48811478 14.03869293 130.5191983 14.74079895 130.55122375 C19.40974869 130.65020787 22.49771394 129.92550567 26.375 127.3125 C30.58795148 122.55151875 30.92229395 118.81268536 30.80859375 112.765625 C30.81820429 111.09895743 30.827975 109.43229078 30.83789062 107.765625 C30.82932602 105.16785762 30.81256727 102.57034124 30.7902832 99.97265625 C30.67847068 80.70424313 30.67847068 80.70424313 36.375 73.3125 C38.5859375 71.09375 38.5859375 71.09375 40.75 69.8125 C41.45898438 69.3690625 42.16796875 68.925625 42.8984375 68.46875 C48.90808445 65.66298423 54.43879042 65.03858382 60.94140625 65.07421875 C62.57748235 65.05880913 64.21355023 65.04250625 65.84960938 65.02539062 C68.39951882 65.00891739 70.94882074 65.00003129 73.4987793 65.00708008 C75.98033827 65.00970556 78.46008962 64.98156267 80.94140625 64.94921875 C82.07601036 64.96452888 82.07601036 64.96452888 83.23353577 64.98014832 C87.20399925 64.90719329 89.68067401 64.46449553 92.83959961 61.96020508 C96.72976546 57.89772567 96.54530246 54.31069141 96.578125 48.9765625 C96.58382507 48.26019623 96.58952515 47.54382996 96.59539795 46.80575562 C96.60483536 45.29109163 96.61137693 43.77640723 96.61523438 42.26171875 C96.62493589 39.95275797 96.65596775 37.64468931 96.6875 35.3359375 C96.69403105 33.86198443 96.69928112 32.38802502 96.703125 30.9140625 C96.7216452 29.88413681 96.7216452 29.88413681 96.74053955 28.83340454 C96.72046891 24.4821839 96.05688145 21.75973249 93.375 18.3125 C87.25810834 14.59310145 80.94955022 14.77065089 73.9375 14.625 C72.82439453 14.59083984 71.71128906 14.55667969 70.56445312 14.52148438 C67.83497823 14.43948298 65.10500692 14.37430344 62.375 14.3125 C62.375 9.6925 62.375 5.0725 62.375 0.3125 C66.46551415 0.19673073 70.55177731 0.09751638 74.64306641 0.0378418 C76.02998264 0.01293195 77.41677087 -0.02101002 78.80322266 -0.06469727 C88.56638686 -0.36428895 96.41016247 0.35021777 104.16308594 6.80004883 C112.46440121 15.36572907 113.02448999 26.79011268 112.89648438 38.06445312 C112.87502684 40.30969189 112.8963843 42.55173264 112.921875 44.796875 C112.93978462 54.4842441 111.74867957 62.77002643 106.625 71.1875 C99.03169681 78.35895301 90.94044901 80.58547149 80.73828125 80.65625 C79.93641891 80.6708728 79.13455658 80.68549561 78.30839539 80.70056152 C74.90586615 80.76239141 71.50316738 80.8024937 68.1003418 80.84423828 C65.60446365 80.87799528 63.10896515 80.92307509 60.61328125 80.96875 C59.46319328 80.97666565 59.46319328 80.97666565 58.28987122 80.98474121 C52.96441312 80.99094166 52.96441312 80.99094166 48.375 83.3125 C45.91925203 87.51080113 46.07970338 91.91647508 46.06640625 96.6484375 C46.04124549 98.28646188 46.01584748 99.92448263 45.99023438 101.5625 C45.96153515 104.12531586 45.93749583 106.68806874 45.91870117 109.25097656 C45.89693172 111.73795712 45.8574878 114.22421159 45.81640625 116.7109375 C45.81629044 117.46845306 45.81617462 118.22596863 45.8160553 119.00643921 C45.66303208 127.31336425 42.28922072 134.43524316 36.375 140.3125 C27.26276568 146.22669054 18.75993211 146.49902312 8.19262695 146.49780273 C6.07938287 146.49998259 3.96666711 146.51814741 1.85351562 146.53710938 C-8.73907254 146.58189601 -18.37478934 146.13567763 -26.51171875 138.5546875 C-33.46232502 131.12322168 -35.07749459 123.99449945 -35.02905273 114.09204102 C-35.03591599 113.10071167 -35.04277924 112.10938232 -35.04985046 111.0880127 C-35.06806177 107.83066236 -35.06428902 104.57379627 -35.05859375 101.31640625 C-35.06315818 99.04011377 -35.06846453 96.76382268 -35.07447815 94.48753357 C-35.08339809 89.72397248 -35.08099865 84.96057914 -35.07104492 80.19702148 C-35.05955547 74.10638975 -35.07977266 68.0163378 -35.10896206 61.9257822 C-35.12734768 57.22702891 -35.12702686 52.52841397 -35.12132454 47.82963371 C-35.12117162 45.58465702 -35.12719133 43.33967078 -35.13961601 41.09472847 C-35.15456885 37.95023817 -35.1438168 34.80681157 -35.12670898 31.66235352 C-35.13637695 30.74415329 -35.14604492 29.82595306 -35.15600586 28.87992859 C-35.05977983 20.39183712 -32.26313767 13.11821884 -26.41699219 6.87084961 C-18.44538264 -0.06140976 -10.16259051 -0.3401485 0 0 Z " fill="#0B3C42" transform="translate(111.625,75.6875)"/>
<path d="M0 0 C1.22323219 -0.01210762 1.22323219 -0.01210762 2.47117615 -0.02445984 C4.20024499 -0.03829041 5.92934101 -0.04901716 7.65844727 -0.05688477 C9.41276138 -0.06835932 11.16704184 -0.0887388 12.92114258 -0.1184082 C34.45882869 -0.48255724 34.45882869 -0.48255724 41.83813477 6.10620117 C49.00867022 13.42401587 51.34932323 21.59223885 51.29541016 31.61645508 C51.30563202 32.61286514 51.31585388 33.60927521 51.3263855 34.63587952 C51.35401946 37.90593994 51.352276 41.1751497 51.34765625 44.4453125 C51.35543949 46.73541065 51.36411075 49.02550593 51.37362671 51.31559753 C51.38851759 56.10771048 51.38799366 60.89952866 51.37744141 65.69165039 C51.365863 71.80799345 51.39970147 77.92312303 51.44613075 84.03926563 C51.4757143 88.76733864 51.4773341 93.49512314 51.4711113 98.22327232 C51.4721325 100.47694995 51.48250926 102.73064485 51.50273514 104.98423195 C51.6948691 129.38673992 51.6948691 129.38673992 43.23721313 138.94319153 C37.28045884 144.36651879 30.71747093 146.37589032 22.88671875 146.3359375 C21.77167969 146.33271484 20.65664062 146.32949219 19.5078125 146.32617188 C18.34894531 146.31779297 17.19007812 146.30941406 15.99609375 146.30078125 C14.82175781 146.29626953 13.64742188 146.29175781 12.4375 146.28710938 C9.54031303 146.27533219 6.64322921 146.25888451 3.74609375 146.23828125 C2.70732992 143.12198976 2.6124775 140.87883835 2.62109375 137.61328125 C2.61722656 136.13988281 2.61722656 136.13988281 2.61328125 134.63671875 C2.74609375 132.23828125 2.74609375 132.23828125 3.74609375 131.23828125 C5.38204245 131.10493727 7.02324316 131.03485656 8.6640625 130.9921875 C9.67146484 130.95931641 10.67886719 130.92644531 11.71679688 130.89257812 C13.84170402 130.83194022 15.96670771 130.77458603 18.09179688 130.72070312 C25.78112197 130.77191092 25.78112197 130.77191092 32.74609375 128.23828125 C37.58164576 119.32946674 36.16003921 107.63294711 36.109375 97.85546875 C36.10885553 95.87110393 36.10937659 93.88673859 36.11088562 91.90237427 C36.11079626 87.75856774 36.1004392 83.61495723 36.08227539 79.47119141 C36.05955998 74.17432405 36.0590535 68.87774186 36.06579304 63.58083916 C36.06914239 59.48863209 36.0624852 55.39648941 36.0526638 51.30429459 C36.04883043 49.3515672 36.04765581 47.39883264 36.04924965 45.44610214 C36.04962268 42.71376766 36.03693467 39.98179199 36.02075195 37.24951172 C36.02322937 36.45241791 36.02570679 35.6553241 36.02825928 34.83407593 C35.97966303 29.66346329 35.3198807 25.18018279 33.74609375 20.23828125 C26.03359382 12.90200082 12.73554024 14.99364174 2.74609375 15.23828125 C-4.08346419 15.56741592 -4.08346419 15.56741592 -10.25390625 18.23828125 C-13.53811778 22.47712368 -13.68074454 26.37074864 -13.66015625 31.5390625 C-13.67641052 32.7318708 -13.67641052 32.7318708 -13.69299316 33.94877625 C-13.72714755 36.48286076 -13.7428174 39.0164973 -13.75390625 41.55078125 C-13.76856818 44.88063311 -13.80244783 48.20950035 -13.84765625 51.5390625 C-13.84463501 52.29141678 -13.84161377 53.04377106 -13.83850098 53.81892395 C-13.93631413 60.82303762 -15.69495434 67.12174655 -20.44140625 72.48828125 C-20.97121094 73.1121875 -21.50101562 73.73609375 -22.046875 74.37890625 C-27.99861286 79.39311372 -33.70879844 80.82109274 -41.35546875 80.7421875 C-42.19556488 80.75160873 -43.03566101 80.76102997 -43.9012146 80.77073669 C-46.56069861 80.79918492 -49.21928308 80.80247189 -51.87890625 80.80078125 C-54.54553793 80.80439915 -57.2115238 80.81401568 -59.87802124 80.84153748 C-61.52965172 80.8582167 -63.18149501 80.86128795 -64.8331604 80.848526 C-69.68613278 80.89279821 -73.07782714 81.49559158 -77.25390625 84.23828125 C-81.15085338 91.20181336 -80.70219121 98.48778987 -80.62890625 106.30078125 C-80.64050781 107.54150391 -80.65210938 108.78222656 -80.6640625 110.06054688 C-80.72531187 119.12132139 -80.72531187 119.12132139 -77.25390625 127.23828125 C-71.90811001 131.48862744 -64.90648527 130.79685051 -58.37890625 130.92578125 C-57.21359375 130.95994141 -56.04828125 130.99410156 -54.84765625 131.02929688 C-51.98340446 131.11146803 -49.11867164 131.17655896 -46.25390625 131.23828125 C-46.25390625 136.18828125 -46.25390625 141.13828125 -46.25390625 146.23828125 C-50.56679129 146.31965644 -54.87812094 146.3789704 -59.19140625 146.42578125 C-61.00995117 146.46348633 -61.00995117 146.46348633 -62.86523438 146.50195312 C-73.22288636 146.58616168 -80.837007 145.43778613 -88.52734375 138.20703125 C-94.29416828 131.63128563 -95.40934087 124.5989706 -95.4921875 116.10546875 C-95.50025925 115.31359161 -95.50833099 114.52171448 -95.51664734 113.70584106 C-95.53045809 112.02982755 -95.54119366 110.35378627 -95.54907227 108.67773438 C-95.56055622 106.97875618 -95.58095096 105.27981305 -95.6105957 103.58105469 C-95.80233706 92.58217041 -95.56794322 83.85313794 -89.37890625 74.36328125 C-82.61621477 67.60058977 -75.71786948 65.95474615 -66.53125 65.9296875 C-64.84179322 65.90454145 -63.15234017 65.87914324 -61.46289062 65.85351562 C-58.82089091 65.82473674 -56.17895569 65.80069308 -53.53686523 65.78198242 C-50.97217006 65.76030626 -48.40819508 65.72088561 -45.84375 65.6796875 C-45.05717514 65.67957169 -44.27060028 65.67945587 -43.46018982 65.67933655 C-38.91244766 65.59747737 -35.76348371 65.23822523 -32.25390625 62.23828125 C-29.76362572 58.06919682 -29.97426042 53.66018866 -29.98046875 48.9375 C-29.96017488 47.30402967 -29.939324 45.67056618 -29.91796875 44.03710938 C-29.8954254 41.48309534 -29.87891446 38.92935294 -29.87304688 36.37524414 C-29.86345872 33.89550646 -29.82960702 31.41696587 -29.79296875 28.9375 C-29.79801422 28.18514572 -29.80305969 27.43279144 -29.80825806 26.65763855 C-29.66361747 18.76187701 -26.17574122 12.58055533 -20.96875 6.77734375 C-14.92111825 1.34962869 -7.86928478 0.07411224 0 0 Z " fill="#0B3C42" transform="translate(106.25390625,3.76171875)"/>
<path d="M0 0 C2 1 2 1 3 3 C2.01 3 1.02 3 0 3 C-0.0093457 4.26593994 -0.01869141 5.53187988 -0.02832031 6.83618164 C-0.06832995 11.5534932 -0.13411946 16.27016012 -0.20751953 20.98706055 C-0.23566557 23.02473643 -0.25691166 25.0625202 -0.27099609 27.1003418 C-0.29251378 30.03750589 -0.33920948 32.97338153 -0.390625 35.91015625 C-0.39185364 36.81459976 -0.39308228 37.71904327 -0.39434814 38.65089417 C-0.52885783 44.5198238 -1.2232899 48.38517383 -5 53 C-8.22827148 53.92211914 -8.22827148 53.92211914 -12 54 C-12.64889191 54.02875214 -13.29778381 54.05750427 -13.96633911 54.08712769 C-16.09403169 54.17739729 -18.21830389 54.21574992 -20.34765625 54.24609375 C-21.93815699 54.27901064 -23.52865165 54.31222263 -25.11914062 54.34570312 C-27.59639637 54.39314883 -30.07362373 54.4376757 -32.55102539 54.47680664 C-34.96264072 54.51667002 -37.37379753 54.56814599 -39.78515625 54.62109375 C-40.51968521 54.6295079 -41.25421417 54.63792206 -42.01100159 54.64659119 C-46.37398139 54.75065984 -49.93780889 55.42094194 -54 57 C-54.928125 57.309375 -55.85625 57.61875 -56.8125 57.9375 C-57.534375 58.288125 -58.25625 58.63875 -59 59 C-59.33 59.99 -59.66 60.98 -60 62 C-60.45375 62.4125 -60.9075 62.825 -61.375 63.25 C-65.577776 67.77606646 -66.38621207 73.21574319 -66.546875 79.17578125 C-66.56719788 79.82701462 -66.58752075 80.47824799 -66.60845947 81.1492157 C-66.64833732 82.51116678 -66.68161665 83.8733261 -66.70849609 85.2355957 C-66.750251 87.32506013 -66.81288928 89.41312736 -66.87890625 91.50195312 C-67.43769557 97.9327104 -67.43769557 97.9327104 -66 104 C-66.33 104.99 -66.66 105.98 -67 107 C-66.01 107.66 -65.02 108.32 -64 109 C-64.20625 109.7425 -64.4125 110.485 -64.625 111.25 C-65.05411694 114.39685755 -64.44633541 115.28812111 -63 118 C-63.33 118.99 -63.66 119.98 -64 121 C-68.00367155 114.28416385 -69.16123013 109.76652975 -69.23828125 101.8671875 C-69.246353 101.07531036 -69.25442474 100.28343323 -69.26274109 99.46755981 C-69.27655184 97.7915463 -69.28728741 96.11550502 -69.29516602 94.43945312 C-69.30664997 92.74047493 -69.32704471 91.0415318 -69.35668945 89.34277344 C-69.54843081 78.34388916 -69.31403697 69.61485669 -63.125 60.125 C-56.36230852 53.36230852 -49.46396323 51.7164649 -40.27734375 51.69140625 C-38.58788697 51.6662602 -36.89843392 51.64086199 -35.20898438 51.61523438 C-32.56698466 51.58645549 -29.92504944 51.56241183 -27.28295898 51.54370117 C-24.71826381 51.52202501 -22.15428883 51.48260436 -19.58984375 51.44140625 C-18.80326889 51.44129044 -18.01669403 51.44117462 -17.20628357 51.4410553 C-12.65854141 51.35919612 -9.50957746 50.99994398 -6 48 C-3.50200984 43.81939159 -3.70466573 39.36690927 -3.69140625 34.62890625 C-3.66625029 32.98632451 -3.64085221 31.34374647 -3.61523438 29.70117188 C-3.58650456 27.12948534 -3.56246616 24.55786275 -3.54370117 21.98608398 C-3.52197347 19.49169586 -3.48253737 16.99803907 -3.44140625 14.50390625 C-3.44129044 13.7412294 -3.44117462 12.97855255 -3.4410553 12.19276428 C-3.35290599 7.40704547 -2.51111856 4.20990214 0 0 Z " fill="#1B3C41" transform="translate(80,18)"/>
<path d="M0 0 C0.99 0.495 0.99 0.495 2 1 C1 4 1 4 -0.70703125 5.1328125 C-1.40183594 5.46023437 -2.09664063 5.78765625 -2.8125 6.125 C-3.49957031 6.45757812 -4.18664062 6.79015625 -4.89453125 7.1328125 C-9.659007 9.09517543 -14.24354844 9.17750031 -19.34375 9.24609375 C-20.99870346 9.27901956 -22.65365124 9.31223141 -24.30859375 9.34570312 C-26.90897902 9.39316618 -29.50933925 9.43764066 -32.10986328 9.47680664 C-34.6255598 9.51653818 -37.1408036 9.56806272 -39.65625 9.62109375 C-40.43238647 9.6295079 -41.20852295 9.63792206 -42.00817871 9.64659119 C-47.37420762 9.66643384 -47.37420762 9.66643384 -52 12 C-54.45574797 16.19830113 -54.29529662 20.60397508 -54.30859375 25.3359375 C-54.33375451 26.97396188 -54.35915252 28.61198263 -54.38476562 30.25 C-54.41346485 32.81281586 -54.43750417 35.37556874 -54.45629883 37.93847656 C-54.47806828 40.42545712 -54.5175122 42.91171159 -54.55859375 45.3984375 C-54.55870956 46.15595306 -54.55882538 46.91346863 -54.5589447 47.69393921 C-54.71196792 56.00086425 -58.08577928 63.12274316 -64 69 C-71.18154553 73.66109926 -77.5969651 75.12508815 -86.09375 75.1328125 C-87.09746643 75.13424759 -87.09746643 75.13424759 -88.12145996 75.13571167 C-89.53003026 75.1363893 -90.93860375 75.13456421 -92.34716797 75.13037109 C-94.49323596 75.12501688 -96.6390947 75.1303302 -98.78515625 75.13671875 C-100.15885462 75.13605789 -101.53255287 75.13477658 -102.90625 75.1328125 C-104.14697266 75.13168457 -105.38769531 75.13055664 -106.66601562 75.12939453 C-109.57857856 75.01635569 -112.17290419 74.67589874 -115 74 C-114.67 73.01 -114.34 72.02 -114 71 C-113.34 71.33 -112.68 71.66 -112 72 C-109.44637396 72.08658569 -106.9204558 72.11562516 -104.3671875 72.09765625 C-103.61535187 72.0962413 -102.86351624 72.09482635 -102.08889771 72.09336853 C-99.6842249 72.08776465 -97.27964473 72.07521157 -94.875 72.0625 C-93.24609509 72.0574855 -91.61718873 72.0529225 -89.98828125 72.04882812 C-85.99215173 72.03779397 -81.99609158 72.02052679 -78 72 C-77.67 71.34 -77.34 70.68 -77 70 C-75.00390625 69.4375 -75.00390625 69.4375 -72.5625 69 C-68.86159602 68.37748838 -68.86159602 68.37748838 -66 66 C-65.01 66 -64.02 66 -63 66 C-62.731875 65.319375 -62.46375 64.63875 -62.1875 63.9375 C-61.35133796 61.86909917 -60.43041047 59.83397553 -59.45117188 57.8293457 C-57.75537343 53.8645093 -57.57583993 50.06090856 -57.59375 45.79296875 C-57.58291382 45.0275325 -57.57207764 44.26209625 -57.56091309 43.47346497 C-57.52690338 41.04472341 -57.51112089 38.6164473 -57.5 36.1875 C-57.4081643 16.26115056 -57.4081643 16.26115056 -54 8 C-49.5173538 6.89211744 -45.10486493 6.83217769 -40.515625 6.7890625 C-38.8411362 6.76098538 -37.16665717 6.73232086 -35.4921875 6.703125 C-32.87467822 6.66199691 -30.25734956 6.62507424 -27.63964844 6.59863281 C-25.09793274 6.57078629 -22.55702288 6.52491501 -20.015625 6.4765625 C-19.24655823 6.47330963 -18.47749146 6.47005676 -17.68511963 6.46670532 C-12.02637669 6.34069844 -7.26723193 5.03922043 -2 3 C-2 2.34 -2 1.68 -2 1 C-1.34 0.67 -0.68 0.34 0 0 Z " fill="#1C3E43" transform="translate(212,147)"/>
<path d="M0 0 C4.09051415 -0.11576927 8.17677731 -0.21498362 12.26806641 -0.2746582 C13.65498264 -0.29956805 15.04177087 -0.33351002 16.42822266 -0.37719727 C26.19138686 -0.67678895 34.03516247 0.03771777 41.78808594 6.48754883 C50.13568841 15.10099033 50.62518613 26.53612976 50.46655273 37.86181641 C50.43745289 40.12866977 50.44601212 42.39319349 50.45898438 44.66015625 C50.44616573 52.26692783 50.03333075 58.90345432 47 66 C46.34 66 45.68 66 45 66 C45.14074951 65.47027588 45.28149902 64.94055176 45.42651367 64.39477539 C47.20303135 56.82754608 47.33893632 49.36660189 47.31567383 41.64086914 C47.31250046 39.43781591 47.33609765 37.23609266 47.36132812 35.03320312 C47.40962355 24.39973538 46.68943282 15.87251455 39 8 C31.99998602 1.18917559 22.70553015 1.63927359 13.5 1.375 C12.39140625 1.33632812 11.2828125 1.29765625 10.140625 1.2578125 C7.42733551 1.16425079 4.71369147 1.0810694 2 1 C2.33 4.63 2.66 8.26 3 12 C10.26 12 17.52 12 25 12 C25 12.99 25 13.98 25 15 C16.75 14.67 8.5 14.34 0 14 C0 9.38 0 4.76 0 0 Z " fill="#214046" transform="translate(174,76)"/>
<path d="M0 0 C1.98 0.33 3.96 0.66 6 1 C6.12375 1.969375 6.2475 2.93875 6.375 3.9375 C6.58125 4.948125 6.7875 5.95875 7 7 C7.66 7.33 8.32 7.66 9 8 C10.06711117 11.20133351 10.09993095 13.44369993 10.0625 16.8046875 C10.05476563 17.94550781 10.04703125 19.08632812 10.0390625 20.26171875 C10.01310528 22.66276133 9.98706417 25.06380301 9.9609375 27.46484375 C9.95320313 28.60824219 9.94546875 29.75164062 9.9375 30.9296875 C9.92589844 31.97366699 9.91429687 33.01764648 9.90234375 34.09326172 C9.90964486 36.99658051 9.90964486 36.99658051 10.6171875 39.75048828 C10.74351562 40.49282715 10.86984375 41.23516602 11 42 C9.1875 44.0625 9.1875 44.0625 7 46 C6.690625 46.70125 6.38125 47.4025 6.0625 48.125 C4.49744328 50.8868648 3.04000906 51.08254977 0 52 C-3.07737622 52.3242613 -6.14567467 52.37199271 -9.23828125 52.4140625 C-10.11904831 52.43342865 -10.99981537 52.4527948 -11.90727234 52.4727478 C-14.70891766 52.53232851 -17.51060456 52.57884265 -20.3125 52.625 C-22.21681438 52.66319959 -24.12111185 52.70225247 -26.02539062 52.7421875 C-30.68345572 52.83801233 -35.34160168 52.9221226 -40 53 C-40 52.34 -40 51.68 -40 51 C-36.82838473 49.41419237 -33.40478617 49.86396074 -29.921875 49.859375 C-28.26951752 49.84104168 -26.6171734 49.82147089 -24.96484375 49.80078125 C-22.35996067 49.77185445 -19.75593284 49.75000111 -17.15087891 49.74951172 C-14.63627262 49.74616592 -12.12363754 49.71154716 -9.609375 49.671875 C-8.83728699 49.6789447 -8.06519897 49.6860144 -7.26971436 49.69329834 C-3.2586981 49.60357752 -0.71723227 49.17684299 2.47558594 46.64550781 C6.35314649 42.58194436 6.17034266 38.9916585 6.203125 33.6640625 C6.21167511 32.58951309 6.21167511 32.58951309 6.22039795 31.49325562 C6.22983536 29.97859163 6.23637693 28.46390723 6.24023438 26.94921875 C6.24993589 24.64025797 6.28096775 22.33218931 6.3125 20.0234375 C6.31903105 18.54948443 6.32428112 17.07552502 6.328125 15.6015625 C6.3404718 14.91494537 6.3528186 14.22832825 6.36553955 13.52090454 C6.34081016 8.15968793 4.91842805 5.06053383 1.3125 1.1875 C0.879375 0.795625 0.44625 0.40375 0 0 Z " fill="#1B3B42" transform="translate(202,91)"/>
<path d="M0 0 C2.36671906 2.36671906 2.25066061 2.80807246 2.25396729 6.01670837 C2.25960693 6.85653763 2.26524658 7.69636688 2.27105713 8.56164551 C2.26498444 9.94640076 2.26498444 9.94640076 2.25878906 11.35913086 C2.2622937 12.32996109 2.26579834 13.30079132 2.26940918 14.30104065 C2.27823886 17.52238029 2.27237249 20.74350173 2.265625 23.96484375 C2.2669714 26.19682355 2.26891173 28.42880307 2.27142334 30.66078186 C2.27437637 35.34411403 2.27007159 40.02737003 2.26074219 44.71069336 C2.24935419 50.7212198 2.25590193 56.73156751 2.26788712 62.74208736 C2.27510648 67.35308687 2.2728173 71.96404386 2.26763153 76.57504463 C2.26629491 78.79147932 2.26794319 81.00791785 2.27259064 83.22434807 C2.27765635 86.32016124 2.26994455 89.41568318 2.25878906 92.51147461 C2.26283752 93.43262054 2.26688599 94.35376648 2.27105713 95.30282593 C2.26259766 96.56679955 2.26259766 96.56679955 2.25396729 97.85630798 C2.25321323 98.58837935 2.25245918 99.32045073 2.25168228 100.07470608 C2 102 2 102 0 105 C-0.15369698 91.75272684 -0.30187874 78.50540468 -0.4429636 65.25799084 C-0.50864507 59.10709944 -0.57624677 52.95624148 -0.64819336 46.80541992 C-0.71751862 40.87272132 -0.78185675 34.93998792 -0.84269524 29.00719643 C-0.86682394 26.74050231 -0.89276846 24.47382679 -0.92053413 22.2071743 C-0.9590317 19.0394316 -0.99114982 15.87168505 -1.02172852 12.70385742 C-1.03467453 11.76086792 -1.04762054 10.81787842 -1.06095886 9.84631348 C-1.06799835 8.98394577 -1.07503784 8.12157806 -1.08229065 7.233078 C-1.09058679 6.48366031 -1.09888292 5.73424261 -1.10743046 4.96211529 C-1 3 -1 3 0 0 Z " fill="#1F3D41" transform="translate(155,27)"/>
<path d="M0 0 C1.22323219 -0.01210762 1.22323219 -0.01210762 2.47117615 -0.02445984 C4.20024499 -0.03829041 5.92934101 -0.04901716 7.65844727 -0.05688477 C9.41276138 -0.06835932 11.16704184 -0.0887388 12.92114258 -0.1184082 C33.88109711 -0.47278922 33.88109711 -0.47278922 42.1484375 6.16796875 C48.0987321 13.70803672 48.0987321 13.70803672 49.74609375 18.23828125 C49.30859375 20.41015625 49.30859375 20.41015625 48.74609375 22.23828125 C48.359375 21.47902344 47.97265625 20.71976563 47.57421875 19.9375 C47.0534375 18.94363281 46.53265625 17.94976563 45.99609375 16.92578125 C45.485625 15.93964844 44.97515625 14.95351563 44.44921875 13.9375 C42.7591705 11.2590061 41.35530583 9.95971162 38.74609375 8.23828125 C38.06546875 7.46484375 38.06546875 7.46484375 37.37109375 6.67578125 C32.54213478 2.40400985 26.01038283 2.97276183 19.97265625 3.04296875 C18.58703995 3.04721359 18.58703995 3.04721359 17.1734314 3.05154419 C14.23918399 3.06268946 11.30524805 3.0877836 8.37109375 3.11328125 C6.37500443 3.12331836 4.37891029 3.13244293 2.3828125 3.140625 C-2.49621274 3.16261028 -7.37500679 3.19710108 -12.25390625 3.23828125 C-12.25390625 3.89828125 -12.25390625 4.55828125 -12.25390625 5.23828125 C-13.24390625 5.23828125 -14.23390625 5.23828125 -15.25390625 5.23828125 C-15.25390625 6.55828125 -15.25390625 7.87828125 -15.25390625 9.23828125 C-17.23390625 9.23828125 -19.21390625 9.23828125 -21.25390625 9.23828125 C-19.87480963 5.82984037 -18.64827131 4.5709059 -15.31640625 3.05078125 C-14.62675781 2.72722656 -13.93710938 2.40367188 -13.2265625 2.0703125 C-8.76441289 0.18825732 -4.7703244 0.0449265 0 0 Z " fill="#1D3E43" transform="translate(106.25390625,3.76171875)"/>
<path d="M0 0 C0.66 0.33 1.32 0.66 2 1 C2.02327578 8.40681733 2.0409922 15.81362665 2.05181217 23.22047329 C2.05700789 26.66058593 2.06404466 30.10067335 2.07543945 33.54077148 C2.08848677 37.50504239 2.09325557 41.46930346 2.09765625 45.43359375 C2.10281754 46.65582138 2.10797882 47.87804901 2.11329651 49.13731384 C2.1143791 65.77124179 2.1143791 65.77124179 0 70 C-0.99 69.67 -1.98 69.34 -3 69 C-2.67854004 68.13882568 -2.35708008 67.27765137 -2.02587891 66.39038086 C-0.30746016 60.33160562 -0.63966995 54.0013369 -0.5859375 47.75390625 C-0.56720314 46.37384411 -0.54762808 44.99379315 -0.5272522 43.61375427 C-0.4761641 40.00207138 -0.43641455 36.39035145 -0.39910889 32.77850342 C-0.35892199 29.08466606 -0.30789705 25.39097969 -0.2578125 21.69726562 C-0.16132984 14.46494774 -0.07683775 7.23255612 0 0 Z " fill="#1C3D42" transform="translate(143,60)"/>
<path d="M0 0 C0.66 1.32 1.32 2.64 2 4 C-2.55210564 11.65354025 -6.87839826 17.22009255 -15.75463867 19.6184082 C-20.76238704 20.46945862 -25.87534422 20.19982436 -30.9375 20.125 C-32.09830078 20.11597656 -33.25910156 20.10695312 -34.45507812 20.09765625 C-37.30360108 20.07421162 -40.15169078 20.04139522 -43 20 C-42.505 18.515 -42.505 18.515 -42 17 C-41.44650879 17.04600342 -40.89301758 17.09200684 -40.32275391 17.1394043 C-24.13995148 18.72870095 -24.13995148 18.72870095 -9.25 13.25 C-3.15445903 7.49890878 -3.15445903 7.49890878 0 0 Z " fill="#1B3F44" transform="translate(153,130)"/>
<path d="M0 0 C1.25361328 0.00322266 2.50722656 0.00644531 3.79882812 0.00976562 C5.76432617 0.02233398 5.76432617 0.02233398 7.76953125 0.03515625 C9.10481606 0.04017308 10.44010266 0.04473566 11.77539062 0.04882812 C15.04429005 0.06062921 18.31316627 0.07856489 21.58203125 0.09765625 C21.58203125 4.71765625 21.58203125 9.33765625 21.58203125 14.09765625 C14.32203125 14.09765625 7.06203125 14.09765625 -0.41796875 14.09765625 C-0.41796875 13.76765625 -0.41796875 13.43765625 -0.41796875 13.09765625 C5.85203125 12.76765625 12.12203125 12.43765625 18.58203125 12.09765625 C18.91203125 9.12765625 19.24203125 6.15765625 19.58203125 3.09765625 C15.82611376 1.84568375 12.30670141 1.91352011 8.39453125 1.91015625 C7.66427734 1.89791016 6.93402344 1.88566406 6.18164062 1.87304688 C0.9851181 1.85923858 -3.40975038 2.72591008 -8.41796875 4.09765625 C-11.41796875 4.22265625 -11.41796875 4.22265625 -13.41796875 4.09765625 C-8.8923343 0.50835996 -5.7297652 -0.02592654 0 0 Z " fill="#1D3B40" transform="translate(103.41796875,75.90234375)"/>
<path d="M0 0 C-0.33 0.99 -0.66 1.98 -1 3 C-2.65614657 3.38218767 -4.32457024 3.71395102 -6 4 C-6.33 3.67 -6.66 3.34 -7 3 C-9.86267567 2.92674832 -12.700719 2.90761795 -15.5625 2.9375 C-16.36880859 2.94201172 -17.17511719 2.94652344 -18.00585938 2.95117188 C-20.00393756 2.96299482 -22.00197783 2.98093086 -24 3 C-24 4.32 -24 5.64 -24 7 C-24.66 7 -25.32 7 -26 7 C-26.38218767 5.34385343 -26.71395102 3.67542976 -27 2 C-25.33225826 0.33225826 -23.26877413 0.77305646 -20.9765625 0.68359375 C-19.955625 0.64169922 -18.9346875 0.59980469 -17.8828125 0.55664062 C-16.80773437 0.51732422 -15.73265625 0.47800781 -14.625 0.4375 C-13.55765625 0.39431641 -12.4903125 0.35113281 -11.390625 0.30664062 C-3.66133433 0 -3.66133433 0 0 0 Z " fill="#183437" transform="translate(136,134)"/>
<path d="M0 0 C7.26 0 14.52 0 22 0 C22 3.96 22 7.92 22 12 C21.34 11.67 20.68 11.34 20 11 C20.33 8.36 20.66 5.72 21 3 C19.22882812 2.90912109 19.22882812 2.90912109 17.421875 2.81640625 C15.8645723 2.73197418 14.30728121 2.64732751 12.75 2.5625 C11.58404297 2.50352539 11.58404297 2.50352539 10.39453125 2.44335938 C9.64042969 2.40146484 8.88632812 2.35957031 8.109375 2.31640625 C7.41811523 2.27974854 6.72685547 2.24309082 6.01464844 2.20532227 C3.93371671 1.99324476 2.01427578 1.55491323 0 1 C0 0.67 0 0.34 0 0 Z " fill="#16373D" transform="translate(38,135)"/>
<path d="M0 0 C-1.42619049 3.63448545 -2.88059802 4.73808744 -6.375 6.375 C-10.76720867 8.64536874 -12.68473034 10.67145238 -15 15 C-15.66 14.67 -16.32 14.34 -17 14 C-13.43885775 7.58994395 -8.22048903 0 0 0 Z " fill="#1C3D41" transform="translate(161,142)"/>
<path d="M0 0 C0.66 0.33 1.32 0.66 2 1 C1.360625 1.721875 0.72125 2.44375 0.0625 3.1875 C-1.98673535 5.98191184 -2.61332946 7.61663274 -3 11 C-3.99 11 -4.98 11 -6 11 C-5.938125 12.27875 -5.87625 13.5575 -5.8125 14.875 C-5.70703125 17.0546875 -5.70703125 17.0546875 -6 19 C-6.99 19.66 -7.98 20.32 -9 21 C-8.42653366 12.10138439 -5.86933387 6.66248709 0 0 Z " fill="#1A383D" transform="translate(86,82)"/>
<path d="M0 0 C4.26167447 0.47351939 6.15020808 3.00021903 9 6 C9.66 6.33 10.32 6.66 11 7 C11 7.66 11 8.32 11 9 C11.99 8.67 12.98 8.34 14 8 C14.33 9.32 14.66 10.64 15 12 C9.54814227 10.6702786 5.7737453 8.06552973 2 4 C0.796875 1.8046875 0.796875 1.8046875 0 0 Z " fill="#1A393E" transform="translate(81,208)"/>
<path d="M0 0 C0.66 0.33 1.32 0.66 2 1 C1.39305845 4.15330554 0.3583335 6.18888867 -1.5625 8.75 C-2.24505859 9.67039063 -2.24505859 9.67039063 -2.94140625 10.609375 C-3.46541016 11.29773438 -3.46541016 11.29773438 -4 12 C-4.99 11.67 -5.98 11.34 -7 11 C-4.69 7.37 -2.38 3.74 0 0 Z " fill="#12363B" transform="translate(211,128)"/>
<path d="M0 0 C1.07765625 0.00902344 2.1553125 0.01804687 3.265625 0.02734375 C4.08546875 0.03894531 4.9053125 0.05054687 5.75 0.0625 C5.75 0.3925 5.75 0.7225 5.75 1.0625 C4.84507813 1.13597656 4.84507813 1.13597656 3.921875 1.2109375 C2.72304687 1.32308594 2.72304687 1.32308594 1.5 1.4375 C0.31664063 1.54191406 0.31664063 1.54191406 -0.890625 1.6484375 C-4.50129873 2.28209878 -6.66641138 3.47891138 -9.25 6.0625 C-9.91 5.7325 -10.57 5.4025 -11.25 5.0625 C-10.92 3.7425 -10.59 2.4225 -10.25 1.0625 C-6.78777385 -0.00473961 -3.60960734 -0.03923486 0 0 Z " fill="#112D31" transform="translate(103.25,17.9375)"/>
<path d="M0 0 C0.33 0.99 0.66 1.98 1 3 C-0.2065625 3.4021875 -0.2065625 3.4021875 -1.4375 3.8125 C-2.283125 4.204375 -3.12875 4.59625 -4 5 C-4.33 5.99 -4.66 6.98 -5 8 C-6.4375 9.6875 -6.4375 9.6875 -8 11 C-8.66 11 -9.32 11 -10 11 C-8.67367286 5.36310966 -4.53368235 3.06814317 0 0 Z " fill="#1E374D" transform="translate(25,72)"/>
<path d="M0 0 C1.32 0 2.64 0 4 0 C4 0.99 4 1.98 4 3 C4.99 3.33 5.98 3.66 7 4 C7.33 6.31 7.66 8.62 8 11 C7.34 11 6.68 11 6 11 C5.566875 9.88625 5.13375 8.7725 4.6875 7.625 C3.30088881 3.82487666 3.30088881 3.82487666 0 2 C0 1.34 0 0.68 0 0 Z " fill="#173A3E" transform="translate(136,19)"/>
<path d="M0 0 C0 1.65 0 3.3 0 5 C-1.98 5 -3.96 5 -6 5 C-3.74193548 0 -3.74193548 0 0 0 Z " fill="#1A383F" transform="translate(91,8)"/>
<path d="M0 0 C0.556875 0.226875 1.11375 0.45375 1.6875 0.6875 C-3.9375 4.6875 -3.9375 4.6875 -7.3125 4.6875 C-7.3125 4.0275 -7.3125 3.3675 -7.3125 2.6875 C-3.15982824 -0.42700382 -3.15982824 -0.42700382 0 0 Z " fill="#19343C" transform="translate(146.3125,143.3125)"/>
<path d="M0 0 C-0.33 0.99 -0.66 1.98 -1 3 C-5.75 4.125 -5.75 4.125 -8 3 C-8 2.34 -8 1.68 -8 1 C-5.23735711 0.40267181 -2.83967231 0 0 0 Z " fill="#153439" transform="translate(136,134)"/>
<path d="M0 0 C0.66 0 1.32 0 2 0 C0.79618552 2.49361571 -0.45428722 4.68143083 -2 7 C-2.66 7 -3.32 7 -4 7 C-2.92598892 4.08482708 -2.22189824 2.22189824 0 0 Z " fill="#133438" transform="translate(218,142)"/>
</svg>
