<?xml version="1.0" encoding="UTF-8"?>
<svg xmlns="http://www.w3.org/2000/svg" version="1.1" width="1004" height="591" style="background: transparent;">
<path d="M0 0 C331.32 0 662.64 0 1004 0 C1004 195.03 1004 390.06 1004 591 C672.68 591 341.36 591 0 591 C0 395.97 0 200.94 0 0 Z " fill="#FEFEFE" transform="translate(0,0)"/>
<path d="M0 0 C10.56 0 21.12 0 32 0 C32.33 31.02 32.66 62.04 33 94 C34.65 90.7 36.3 87.4 38 84 C47.37559217 71.68304558 61.62319322 63.19183213 77 61 C87.60413952 60.18647362 97.88667849 60.45246997 108 64 C109.00417969 64.3403125 110.00835937 64.680625 111.04296875 65.03125 C119.83505085 68.3296737 126.40233258 73.40233258 133 80 C133.33 74.72 133.66 69.44 134 64 C138.62 64 143.24 64 148 64 C148 52.45 148 40.9 148 29 C158.56 29 169.12 29 180 29 C180 40.55 180 52.1 180 64 C186.6 64 193.2 64 200 64 C200 72.25 200 80.5 200 89 C193.4 89 186.8 89 180 89 C180.09740777 93.69608005 180.20042567 98.39137256 180.31738281 103.08691406 C180.35545052 104.6812411 180.39034037 106.27564755 180.421875 107.87011719 C180.46801263 110.1741151 180.52592065 112.47757666 180.5859375 114.78125 C180.60326431 115.83487732 180.60326431 115.83487732 180.62094116 116.90979004 C180.76552974 121.85877939 181.66705531 126.22946113 183 131 C184.41655793 131.0272415 185.83327045 131.04650467 187.25 131.0625 C188.43335938 131.07990234 188.43335938 131.07990234 189.640625 131.09765625 C191.90691002 131.00385306 193.8288895 130.63241063 196 130 C196.66 131.65 197.32 133.3 198 135 C198.515625 133.80375 199.03125 132.6075 199.5625 131.375 C201.8175075 126.84082421 204.80783456 123.81098796 209 121 C214.99862118 119.00045961 222.5899733 118.74531842 228.55859375 120.94140625 C233.77324175 124.08596714 237.66070294 128.34423115 240 134 C240.89673946 141.13615823 240.89877975 147.45121017 236.4921875 153.3515625 C232.31195248 157.96951846 228.12090871 161.53577285 221.74609375 162.25390625 C216.24525743 162.51425118 212.45324521 161.74625347 207.69140625 158.97265625 C205.85161268 157.8400965 205.85161268 157.8400965 203 157 C200.72621805 157.74335179 198.47928358 158.56977253 196.25 159.4375 C185.64108646 163.23656799 174.8965267 163.74918352 164.3671875 159.25 C155.71741901 154.68246549 152.1295733 148.05642153 148.94702148 139.00537109 C147.5827078 134.13074947 147.75120309 129.28010998 147.8046875 124.25390625 C147.8075174 123.24279282 147.81034729 122.23167938 147.81326294 121.18992615 C147.82440111 117.98066048 147.84949403 114.77168042 147.875 111.5625 C147.88503802 109.37825926 147.89416243 107.19401411 147.90234375 105.00976562 C147.92431957 99.67308068 147.95773344 94.33656076 148 89 C145.36 89.33 142.72 89.66 140 90 C140.433125 90.82564453 140.433125 90.82564453 140.875 91.66796875 C145.79763422 102.69261831 146.15177701 116.85187474 142.30249023 128.31176758 C139.32390878 135.86189669 134.86806851 141.49479792 129 147 C128.43539062 147.57105469 127.87078125 148.14210938 127.2890625 148.73046875 C116.00401167 159.43750478 100.38652412 162.52682732 85.32421875 162.34936523 C69.27651869 161.8133517 54.80389863 156.5922444 43.125 145.3359375 C38.54739844 140.30394167 35.52271795 135.30679487 33 129 C32.67 138.9 32.34 148.8 32 159 C21.44 159 10.88 159 0 159 C-0.33 155.7 -0.66 152.4 -1 149 C-2.6396875 150.5778125 -2.6396875 150.5778125 -4.3125 152.1875 C-13.44900273 160.18802548 -23.6144292 162.40871949 -35.4921875 162.2734375 C-45.8281444 161.4677393 -54.09680448 157.54636372 -62 151 C-62.63550781 150.49984375 -63.27101562 149.9996875 -63.92578125 149.484375 C-72.6906832 141.78836354 -77.89872367 128.37985545 -79 117 C-79.92582389 102.01047036 -76.6620829 88.34710854 -66.8125 76.8125 C-57.40219351 66.9208082 -47.08841633 61.07275282 -33.29663086 60.52954102 C-20.97335931 60.37522912 -11.87939517 63.53301528 -2 71 C-1.67 71.33 -1.34 71.66 -1 72 C-0.67 48.24 -0.34 24.48 0 0 Z " fill="#145D66" transform="translate(253,187)"/>
<path d="M0 0 C10.89 0 21.78 0 33 0 C33.33 23.76 33.66 47.52 34 72 C39.445 68.535 39.445 68.535 45 65 C56.35162304 60.24459035 69.8962547 60.25627572 81.36328125 64.74609375 C93.76068355 70.64174729 102.12764278 79.67956425 108 92 C108.07476563 91.38253906 108.14953125 90.76507813 108.2265625 90.12890625 C109.63480593 81.05816184 113.20077648 74.82999186 120.5 69.1875 C133.75784647 60.69141359 149.2653153 60.24919301 164.26074219 63.29296875 C170.49770378 64.66350306 176.18379702 66.33614851 182 69 C180.4719611 74.09882455 178.28963144 78.65665659 175.875 83.375 C175.50246094 84.11105469 175.12992188 84.84710938 174.74609375 85.60546875 C173.8343878 87.40550358 172.91770068 89.20301402 172 91 C171.14728516 90.70996094 171.14728516 90.70996094 170.27734375 90.4140625 C168.66127273 89.86907695 167.04259149 89.3317924 165.421875 88.80078125 C163.50105257 88.16567061 161.59192159 87.49521717 159.6875 86.8125 C154.49271831 85.66788708 149.29745607 85.47335232 144 86 C140.80002845 87.6408946 140.80002845 87.6408946 140.4375 90.375 C140.76157511 93.24052219 140.76157511 93.24052219 143.4921875 94.98828125 C147.31148005 97.39178696 151.38866368 98.54350091 155.6875 99.8125 C166.55900351 103.25477525 176.18420583 107.6653135 182 118 C185.7022459 125.63508151 184.99143345 135.01263354 182.4375 142.9375 C179.07727653 150.91071317 173.54387091 155.4054373 165.765625 158.93359375 C148.89599421 165.43840901 130.5568345 165.03803287 114 158 C104.63774881 153.49736751 104.63774881 153.49736751 103.234375 150.20239258 C102.90950236 147.149605 103.91853747 145.82173356 105.52734375 143.234375 C106.07197266 142.34492188 106.61660156 141.45546875 107.17773438 140.5390625 C107.75845703 139.61867188 108.33917969 138.69828125 108.9375 137.75 C109.51435547 136.81414062 110.09121094 135.87828125 110.68554688 134.9140625 C112.1127336 132.6022559 113.55109823 130.29823615 115 128 C117.39314274 129.17914557 119.71041511 130.40464366 122.03125 131.7265625 C129.69830523 135.92272111 136.01252949 138.63540124 145 137 C145.99 136.34 146.98 135.68 148 135 C148.36297936 133.02252878 148.36297936 133.02252878 148.1875 130.875 C148.125625 129.59625 148.06375 128.3175 148 127 C147.16855469 126.73445313 146.33710937 126.46890625 145.48046875 126.1953125 C133.43407581 122.05816745 119.4640723 116.89416378 112 106 C111.97421875 106.83660156 111.9484375 107.67320312 111.921875 108.53515625 C111.06024283 126.21819826 106.6340695 140.39478093 93.640625 152.8046875 C89.71890497 156.06505238 85.739594 158.16963874 81 160 C79.81470703 160.47566406 79.81470703 160.47566406 78.60546875 160.9609375 C68.2265436 164.61619708 56.19851886 164.300152 46.1796875 159.70703125 C41.03836907 157.04040076 36.76802742 154.41768732 33 150 C32.67 153.3 32.34 156.6 32 160 C21.44 160 10.88 160 0 160 C0 107.2 0 54.4 0 0 Z " fill="#145E67" transform="translate(645,186)"/>
<path d="M0 0 C10.89 0 21.78 0 33 0 C33.33 30.36 33.66 60.72 34 92 C35.65 89.03 37.3 86.06 39 83 C46.78275894 72.78600218 54.8211991 66.83661741 67 63 C67.99 62.67 68.98 62.34 70 62 C84.43845658 61.20198762 96.17770058 63.51219529 108 72 C108.33 69.69 108.66 67.38 109 65 C119.89 65 130.78 65 142 65 C142 96.35 142 127.7 142 160 C131.44 160 120.88 160 110 160 C109.67 156.7 109.34 153.4 109 150 C107.3603125 151.5778125 107.3603125 151.5778125 105.6875 153.1875 C95.78785704 161.87170637 84.78284536 163.77558837 72 163 C59.07544445 161.11716351 49.33470113 154.95710479 41 145 C38.14353218 140.85932185 35.59460039 136.78380116 34 132 C33.67 141.24 33.34 150.48 33 160 C22.11 160 11.22 160 0 160 C0 107.2 0 54.4 0 0 Z " fill="#145E66" transform="translate(498,186)"/>
<path d="M0 0 C-1.5280389 5.09882455 -3.71036856 9.65665659 -6.125 14.375 C-6.49753906 15.11105469 -6.87007812 15.84710938 -7.25390625 16.60546875 C-8.1656122 18.40550358 -9.08229932 20.20301402 -10 22 C-10.56847656 21.80664062 -11.13695312 21.61328125 -11.72265625 21.4140625 C-13.33872727 20.86907695 -14.95740851 20.3317924 -16.578125 19.80078125 C-18.49894743 19.16567061 -20.40807841 18.49521717 -22.3125 17.8125 C-27.50728169 16.66788708 -32.70254393 16.47335232 -38 17 C-41.19997155 18.6408946 -41.19997155 18.6408946 -41.5625 21.375 C-41.23842489 24.24052219 -41.23842489 24.24052219 -38.5078125 25.98828125 C-34.68851995 28.39178696 -30.61133632 29.54350091 -26.3125 30.8125 C-15.44099649 34.25477525 -5.81579417 38.6653135 0 49 C3.7022459 56.63508151 2.99143345 66.01263354 0.4375 73.9375 C-2.92272347 81.91071317 -8.45612909 86.4054373 -16.234375 89.93359375 C-33.10400579 96.43840901 -51.4431655 96.03803287 -68 89 C-77.36225119 84.49736751 -77.36225119 84.49736751 -78.765625 81.20239258 C-79.09049764 78.149605 -78.08146253 76.82173356 -76.47265625 74.234375 C-75.92802734 73.34492188 -75.38339844 72.45546875 -74.82226562 71.5390625 C-74.24154297 70.61867188 -73.66082031 69.69828125 -73.0625 68.75 C-72.48564453 67.81414062 -71.90878906 66.87828125 -71.31445312 65.9140625 C-69.8872664 63.6022559 -68.44890177 61.29823615 -67 59 C-64.60685726 60.17914557 -62.28958489 61.40464366 -59.96875 62.7265625 C-52.30169477 66.92272111 -45.98747051 69.63540124 -37 68 C-36.01 67.34 -35.02 66.68 -34 66 C-33.63702064 64.02252878 -33.63702064 64.02252878 -33.8125 61.875 C-33.874375 60.59625 -33.93625 59.3175 -34 58 C-34.83144531 57.73445313 -35.66289063 57.46890625 -36.51953125 57.1953125 C-48.56592419 53.05816745 -62.5359277 47.89416378 -70 37 C-70.99 37.495 -70.99 37.495 -72 38 C-74.40058002 27.75136992 -75.09569432 17.48824986 -69.5 8.125 C-53.44269183 -12.91161768 -21.55445496 -9.87205352 0 0 Z " fill="#155F67" transform="translate(827,255)"/>
<path d="M0 0 C5.75070545 3.205011 9.60552611 7.75407834 11.6875 14 C12.32929564 21.69102643 12.54322119 28.67102594 7.6875 35 C2.29295289 40.39454711 -3.12364941 43.121491 -10.75 43.4375 C-17.00911617 43.23172084 -21.48394529 41.65846345 -26.06640625 37.3515625 C-31.75462682 31.07396004 -32.77663564 25.61781498 -32.625 17.23046875 C-32.04980791 11.28442049 -29.87752908 7.14847331 -25.4375 3.1875 C-17.16644428 -2.602239 -9.50306258 -4.24269461 0 0 Z " fill="#FBFCFC" transform="translate(596.3125,278)"/>
<path d="M0 0 C6.09443107 2.73834497 9.97539527 6.34983522 13.26953125 12.16015625 C15.36913505 18.45896765 15.48013234 26.48261282 12.70703125 32.59765625 C9.72909512 37.57491346 5.63211517 41.00511522 0.45703125 43.53515625 C-7.47317425 45.0900985 -13.38781427 44.62947311 -20.53125 40.6484375 C-25.52915033 37.26619944 -28.51160415 33.14367336 -29.73046875 27.16015625 C-30.40394634 19.82443114 -30.51654778 13.11616571 -25.73046875 7.16015625 C-18.06905826 0.12673022 -10.364172 -3.18783545 0 0 Z " fill="#FBFCFC" transform="translate(706.73046875,276.83984375)"/>
<path d="M0 0 C4.50843347 2.95677377 8.08962312 7.30689916 10.04296875 12.33984375 C10.86986903 19.89510107 11.37178918 27.4894708 6.53125 33.76171875 C1.14986672 39.46796244 -3.7506081 42.30493113 -11.70703125 42.77734375 C-18.65621265 42.63038221 -24.4524649 39.78019045 -29.39453125 34.96484375 C-33.54333624 27.99485136 -35.11154983 22.49993623 -33.95703125 14.33984375 C-31.83706154 7.21182966 -28.35767518 3.20234769 -22.04296875 -0.6015625 C-14.86770907 -4.2429396 -7.06967738 -3.51606963 0 0 Z " fill="#FBFCFC" transform="translate(351.95703125,278.66015625)"/>
<path d="M0 0 C4.50843347 2.95677377 8.08962312 7.30689916 10.04296875 12.33984375 C10.86986903 19.89510107 11.37178918 27.4894708 6.53125 33.76171875 C1.14986672 39.46796244 -3.7506081 42.30493113 -11.70703125 42.77734375 C-18.65621265 42.63038221 -24.4524649 39.78019045 -29.39453125 34.96484375 C-33.54333624 27.99485136 -35.11154983 22.49993623 -33.95703125 14.33984375 C-31.83706154 7.21182966 -28.35767518 3.20234769 -22.04296875 -0.6015625 C-14.86770907 -4.2429396 -7.06967738 -3.51606963 0 0 Z " fill="#FBFCFC" transform="translate(242.95703125,278.66015625)"/>
</svg>